# xmcd CD database file
#
# Track frame offsets:
#	150
#	22883
#	42292
#	60001
#	74318
#	90396
#	109295
#	132088
#	152764
#	170939
#	187630
#	202894
#	224794
#	236233
#	250385
#	272836
#	289362
#	302109
#	320741
#
# Disc length: 4588 seconds
#
# Revision: 1
# Processed by: cddbd v1.5.1PL2 Copyright (c) Steve Scherf et al.
# Submitted via: CDex 1.51
#
DISCID=1911ea13
DTITLE=Jackson Mackay - The Early Years
DYEAR=2006
DGENRE=Country
TTITLE0=THE YELLOW GROOVE
TTITLE1=ROCK MY GIRL
TTITLE2=SOMEDAY, SOMEWHERE IN THE PAST
TTITLE3=BACK TO THE RODEO
TTITLE4=I FEEL SO GOOD
TTITLE5=A NEW START UP ABOVE
TTITLE6=THE SUN GOES DOWN
TTITLE7=MONEY DON'T MAKE THE WORLD GO ROUND
TTITLE8=AN ANGEL'S FALLEN
TTITLE9=TO MUCH HONKY TONKING
TTITLE10=TEAR DROPS ARE READY TO FALL
TTITLE11=A GLANCE TO THE SKY
TTITLE12=JUMP INTO MY WORLD
TTITLE13=THE YELLOW GROOVE (REPRISE)
TTITLE14=AS GOOD AS YOU
TTITLE15=CHOOSING BLUES
TTITLE16=WAY DOWN NEW ORLEANS
TTITLE17=THIS IS LOVE
TTITLE18=WHERE ARE ALL THE COWBOYS
EXTD=YEAR: 2006
EXTT0=
EXTT1=
EXTT2=
EXTT3=
EXTT4=
EXTT5=
EXTT6=
EXTT7=
EXTT8=
EXTT9=
EXTT10=
EXTT11=
EXTT12=
EXTT13=
EXTT14=
EXTT15=
EXTT16=
EXTT17=
EXTT18=
PLAYORDER=
